<?xml version="1.0" encoding="UTF-8" standalone="no"?>
<!-- Created with Inkscape (http://www.inkscape.org/) -->

<svg
   width="192"
   height="192"
   viewBox="0 0 192 192"
   id="svg2"
   version="1.1"
   inkscape:version="1.3 (0e150ed, 2023-07-21)"
   sodipodi:docname="favicon.svg"
   xmlns:inkscape="http://www.inkscape.org/namespaces/inkscape"
   xmlns:sodipodi="http://sodipodi.sourceforge.net/DTD/sodipodi-0.dtd"
   xmlns="http://www.w3.org/2000/svg"
   xmlns:svg="http://www.w3.org/2000/svg"
   xmlns:rdf="http://www.w3.org/1999/02/22-rdf-syntax-ns#"
   xmlns:cc="http://creativecommons.org/ns#"
   xmlns:dc="http://purl.org/dc/elements/1.1/">
  <defs
     id="defs4" />
  <sodipodi:namedview
     id="base"
     pagecolor="white"
     bordercolor="#666666"
     borderopacity="1.0"
     inkscape:pageopacity="0"
     inkscape:pageshadow="2"
     inkscape:zoom="2"
     inkscape:cx="78"
     inkscape:cy="122.75"
     inkscape:document-units="px"
     inkscape:current-layer="layer1"
     showgrid="false"
     units="px"
     inkscape:window-width="1648"
     inkscape:window-height="976"
     inkscape:window-x="0"
     inkscape:window-y="25"
     inkscape:window-maximized="0"
     inkscape:showpageshadow="2"
     inkscape:pagecheckerboard="0"
     inkscape:deskcolor="#d1d1d1" />
  <metadata
     id="metadata7">
    <rdf:RDF>
      <cc:Work
         rdf:about="">
        <dc:format>image/svg+xml</dc:format>
        <dc:type
           rdf:resource="http://purl.org/dc/dcmitype/StillImage" />
      </cc:Work>
    </rdf:RDF>
  </metadata>
  <g
     inkscape:label="Layer 1"
     inkscape:groupmode="layer"
     id="layer1"
     transform="translate(0,-1004.3622)">
    <rect
       style="opacity:1;fill:#000000;fill-opacity:1;stroke:#000000;stroke-width:31.6829;stroke-linecap:butt;stroke-linejoin:round;stroke-miterlimit:4;stroke-dasharray:380.196, 31.6829;stroke-dashoffset:0;stroke-opacity:1"
       id="rect4144"
       width="316.83807"
       height="322.71262"
       x="-4.4360709"
       y="1009.7701" />
    <g
       id="g4309"
       transform="matrix(0.28383824,0,0,-0.28383824,-193.85761,1750.7068)"
       style="fill:#ffffff;stroke:#000000;stroke-opacity:1">
      <path
         id="path4311"
         d="m 898,2516 c -45,-22 -46,-24 -30,-41 16,-17 15,-17 -15,-12 -37,7 -43,-5 -13,-26 18,-12 18,-15 5,-20 -21,-8 -19,-27 3,-27 16,-1 16,-2 -1,-14 -18,-14 -18,-15 -1,-24 16,-9 16,-12 4,-27 -12,-15 -12,-19 3,-30 9,-6 14,-15 10,-19 -4,-4 -1,-11 7,-16 18,-11 16,-75 -3,-123 -11,-26 -25,-38 -53,-47 -35,-12 -39,-11 -52,9 -17,24 -32,28 -32,7 0,-28 -21,-28 -42,-1 -12,15 -49,40 -83,55 -59,26 -63,31 -79,79 -19,60 -14,94 19,111 30,16 57,7 48,-17 -4,-12 6,-7 27,13 35,34 34,48 -5,58 -13,3 -40,17 -60,30 -25,17 -56,26 -103,31 -88,9 -95,11 -126,41 l -25,26 -7,-26 c -4,-17 0,-35 9,-50 16,-24 15,-24 -31,-44 -26,-11 -56,-22 -67,-24 -36,-6 -23,-33 18,-36 l 39,-3 -40,-27 c -22,-15 -65,-44 -96,-65 -76,-51 -75,-71 2,-61 31,4 67,11 80,15 46,17 45,9 -1,-21 -55,-34 -59,-45 -16,-36 l 31,6 -30,-38 c -17,-20 -62,-68 -101,-106 -40,-38 -70,-74 -68,-80 2,-6 22,-12 45,-14 37,-3 50,3 100,40 96,74 96,78 -4,-77 -18,-27 -58,-75 -88,-105 -51,-50 -69,-80 -48,-80 22,0 132,125 175,198 79,134 74,120 -53,-158 C 98,1626 25,1495 9,1484 c -5,-3 -9,-18 -9,-35 0,-26 3,-29 30,-29 56,0 158,125 235,285 83,175 108,225 112,222 2,-2 -31,-86 -72,-186 -41,-99 -75,-185 -75,-189 0,-5 -14,-30 -31,-58 -18,-27 -32,-61 -31,-75 0,-16 -14,-44 -39,-74 -21,-26 -39,-51 -39,-56 0,-34 68,37 104,109 13,26 45,106 70,177 64,175 68,186 72,182 10,-9 -104,-368 -148,-465 -30,-69 -37,-132 -14,-132 34,0 82,48 116,115 41,82 51,103 66,136 7,13 34,90 60,171 27,81 50,145 52,144 5,-6 -27,-124 -69,-256 -49,-149 -99,-249 -146,-291 -21,-18 -33,-36 -29,-44 3,-9 -11,-26 -39,-45 -25,-17 -45,-35 -45,-40 0,-27 61,12 113,71 76,87 147,248 203,459 19,73 22,79 23,45 0,-22 -8,-94 -18,-160 -12,-75 -16,-124 -10,-130 17,-18 60,18 79,65 20,51 55,146 64,173 3,10 10,15 16,12 16,-10 12,-57 -10,-121 -11,-32 -19,-72 -18,-89 1,-18 -10,-51 -27,-82 -16,-29 -26,-55 -23,-58 11,-12 25,3 48,52 30,63 46,123 70,265 21,125 43,193 66,202 8,3 14,1 14,-4 0,-6 -4,-10 -10,-10 -14,0 -12,-31 5,-60 33,-58 36,-72 20,-97 -22,-32 -10,-46 34,-39 20,3 30,3 23,0 -12,-6 -42,-66 -42,-85 0,-5 7,-9 14,-9 10,0 2,-14 -19,-37 -40,-43 -43,-53 -16,-53 14,0 21,-10 28,-37 6,-29 14,-39 31,-41 13,-2 29,1 36,7 10,9 15,7 20,-5 4,-11 13,-14 28,-11 29,8 79,-35 95,-81 14,-42 12,-47 -15,-33 -28,15 -84,16 -109,3 -12,-7 -25,-26 -28,-44 -6,-26 -3,-35 15,-50 44,-36 94,-13 70,32 -6,11 -6,21 -1,24 12,8 61,-32 70,-58 10,-24 -6,-66 -25,-66 -23,0 -26,-20 -4,-28 21,-8 21,-10 6,-24 -22,-22 -21,-26 14,-58 32,-30 39,-66 18,-100 -10,-16 -10,-24 0,-41 15,-23 15,-179 1,-179 -5,0 -9,-6 -9,-14 0,-18 -59,-68 -71,-60 -5,3 -5,13 1,24 24,45 -26,68 -70,32 -18,-15 -21,-24 -15,-50 9,-41 46,-61 95,-51 82,18 75,28 78,-107 2,-110 1,-122 -18,-139 -12,-11 -20,-31 -20,-52 0,-18 -4,-33 -10,-33 -18,0 -11,-29 10,-40 11,-6 27,-24 35,-40 19,-37 41,-39 49,-5 4,14 17,32 31,41 25,16 34,44 15,44 -5,0 -10,15 -10,33 0,21 -8,41 -20,52 -19,17 -20,29 -18,139 3,135 -4,125 78,107 49,-10 86,10 95,51 6,26 3,35 -15,50 -44,36 -94,13 -70,-32 6,-11 6,-21 1,-24 -12,-8 -71,42 -71,60 0,8 -4,14 -9,14 -14,0 -14,156 1,179 10,17 10,25 0,41 -21,34 -14,70 18,100 35,32 36,36 14,58 -15,14 -15,16 6,24 22,8 19,28 -4,28 -19,0 -35,42 -25,66 9,26 58,66 70,58 5,-3 5,-13 -1,-24 -24,-45 26,-68 70,-32 18,15 21,24 15,50 -3,18 -16,37 -28,44 -25,13 -81,12 -109,-3 -27,-14 -29,-9 -15,33 16,46 66,89 95,81 14,-3 24,0 28,10 5,15 8,15 30,1 33,-23 51,-12 59,35 5,31 11,41 26,41 27,0 24,10 -16,53 -21,23 -29,37 -19,37 19,0 18,13 -5,60 l -19,39 28,-5 c 35,-7 45,9 25,39 -14,21 -13,29 8,87 16,47 19,64 10,67 -7,3 -13,9 -13,14 0,4 6,6 14,3 21,-8 64,-121 76,-199 22,-147 71,-302 102,-321 23,-14 20,11 -7,59 -17,31 -28,64 -27,82 1,17 -7,57 -18,89 -22,64 -26,111 -10,121 6,3 13,-2 16,-12 9,-27 44,-122 64,-173 19,-47 62,-83 79,-65 6,6 2,55 -10,130 -10,66 -18,138 -18,160 1,34 4,28 23,-45 56,-211 127,-372 203,-459 52,-59 113,-98 113,-71 0,5 -20,23 -45,40 -28,19 -42,36 -39,45 4,8 -8,26 -29,44 -47,42 -97,142 -146,291 -42,132 -74,250 -69,256 2,1 25,-63 52,-144 26,-81 53,-158 60,-171 15,-33 25,-54 66,-136 34,-67 82,-115 116,-115 23,0 16,63 -14,132 -44,97 -158,456 -148,465 4,4 8,-7 72,-182 25,-71 57,-151 70,-177 36,-72 104,-143 104,-109 0,5 -18,30 -39,56 -25,30 -39,58 -39,74 1,14 -13,48 -31,75 -17,28 -31,53 -31,58 0,4 -34,90 -75,189 -107,260 -95,249 40,-36 77,-160 179,-285 235,-285 27,0 30,3 30,29 0,17 -4,32 -9,35 -16,11 -89,142 -141,256 -93,204 -109,240 -105,240 2,0 25,-37 52,-82 43,-73 153,-198 175,-198 21,0 3,30 -48,80 -30,30 -70,78 -88,105 -100,155 -100,151 -4,77 50,-37 63,-43 100,-40 23,2 43,8 45,14 2,6 -28,42 -68,80 -39,38 -84,86 -101,106 l -30,38 31,-6 c 43,-9 39,2 -16,36 -46,30 -47,38 -1,21 13,-4 49,-11 81,-15 76,-10 77,10 1,61 -31,21 -74,50 -96,65 l -40,27 39,3 c 41,3 54,30 18,36 -11,2 -41,13 -67,24 -46,20 -47,20 -31,44 9,15 13,33 9,50 l -7,26 -25,-26 c -31,-30 -38,-32 -126,-41 -47,-5 -78,-14 -103,-31 -20,-13 -47,-27 -60,-30 -39,-10 -40,-24 -5,-58 21,-20 31,-25 27,-13 -9,24 18,33 48,17 33,-17 38,-51 19,-111 -16,-48 -20,-53 -79,-79 -34,-15 -71,-40 -83,-55 -21,-27 -42,-27 -42,1 0,21 -16,17 -32,-8 -15,-23 -16,-23 -49,-6 -84,44 -93,54 -119,139 -37,121 -37,125 1,149 23,14 46,20 72,18 34,-3 37,-1 37,22 0,50 -12,67 -64,93 -72,37 -187,38 -258,3 z m 137,-961 c 9,-55 3,-281 -7,-291 -17,-16 -23,13 -27,127 -3,126 4,209 19,209 5,0 12,-20 15,-45 z"
         inkscape:connector-curvature="0"
         style="fill:#ffffff;stroke:#000000;stroke-opacity:0" />
    </g>
    <rect
       style="opacity:0;fill:#ffffff;fill-opacity:1;stroke:#ffffff;stroke-width:0.940314;stroke-linecap:butt;stroke-linejoin:round;stroke-miterlimit:4;stroke-dasharray:11.2838, 0.940314;stroke-dashoffset:0;stroke-opacity:0"
       id="rect4338"
       width="47.059685"
       height="47.059689"
       x="-0.1182311"
       y="990.81232"
       ry="1.7656996" />
  </g>
</svg>
